<?xml version="1.0" standalone="no"?>
<!DOCTYPE svg PUBLIC "-//W3C//DTD SVG 20010904//EN"
 "http://www.w3.org/TR/2001/REC-SVG-20010904/DTD/svg10.dtd">
<svg version="1.0" xmlns="http://www.w3.org/2000/svg"
 width="346.000000pt" height="346.000000pt" viewBox="0 0 346.000000 346.000000"
 preserveAspectRatio="xMidYMid meet">
<metadata>
Created by potrace 1.14, written by Peter Selinger 2001-2017
</metadata>
<g transform="translate(0.000000,346.000000) scale(0.100000,-0.100000)"
fill="#000000" stroke="none">
<path d="M1745 3446 c-37 -16 -64 -41 -94 -84 -12 -18 -27 -30 -32 -26 -23 14
-213 -77 -227 -108 -2 -5 -10 -8 -17 -8 -7 0 -20 -11 -29 -24 -8 -14 -27 -36
-41 -50 -14 -14 -25 -27 -25 -30 0 -3 -5 -17 -12 -33 -6 -15 -12 -30 -13 -33
-19 -48 -31 -70 -37 -70 -4 0 -8 -7 -8 -15 0 -8 -4 -15 -9 -15 -5 0 -15 -17
-21 -37 -7 -21 -16 -42 -21 -47 -5 -6 -9 -18 -9 -28 0 -25 -10 -22 -50 13 -47
41 -110 69 -159 69 -31 0 -46 -7 -70 -31 -60 -59 -38 -120 89 -247 47 -48 99
-103 113 -123 l27 -36 -45 -33 c-25 -18 -47 -42 -51 -52 -3 -10 -10 -18 -15
-18 -5 0 -9 -6 -9 -12 0 -7 -22 -35 -50 -63 -27 -27 -49 -56 -50 -62 0 -7 -4
-13 -8 -13 -14 0 -160 -112 -232 -176 -143 -130 -300 -304 -300 -333 0 -6 -4
-11 -9 -11 -13 0 -41 -76 -41 -114 0 -48 38 -99 81 -110 49 -12 96 12 134 69
17 24 33 45 38 45 4 0 7 5 7 11 0 6 6 16 12 24 7 7 27 30 43 50 17 21 44 53
61 72 l32 34 4 -35 c2 -20 1 -36 -3 -36 -6 0 -24 -39 -34 -72 -1 -5 -3 -9 -5
-10 -7 -10 -12 -52 -13 -103 0 -48 6 -74 32 -128 18 -37 37 -70 42 -73 5 -3 1
-20 -8 -37 -17 -34 -22 -157 -8 -232 4 -22 8 -49 10 -60 4 -33 26 -99 39 -117
6 -9 28 -23 47 -31 33 -13 37 -20 49 -77 8 -37 22 -71 35 -85 13 -12 26 -33
30 -46 14 -42 64 -143 92 -185 56 -83 233 -274 297 -319 15 -11 37 -28 48 -37
12 -10 27 -18 35 -18 7 0 13 -4 13 -10 0 -5 3 -9 8 -8 4 1 24 -6 45 -15 35
-15 95 -34 137 -44 28 -6 175 -6 215 0 111 16 277 103 377 196 9 9 31 27 48
41 63 47 167 161 179 194 2 6 7 13 10 16 3 3 15 23 26 44 11 22 34 54 50 72
17 17 39 55 49 84 18 51 19 52 32 29 7 -13 11 -26 8 -30 -2 -3 -6 -116 -9
-252 l-6 -245 33 5 c18 2 37 9 42 13 5 5 11 69 13 142 8 331 10 357 22 372 17
20 23 60 12 88 -7 18 -3 41 11 84 34 99 40 133 41 214 1 36 -3 74 -7 86 -6 17
-2 23 25 34 54 23 102 81 114 140 2 8 4 35 4 61 l1 45 43 3 c123 7 236 58 244
111 1 11 3 23 4 27 6 36 -40 97 -76 101 -8 1 -21 3 -27 4 -7 0 -52 -2 -99 -6
l-86 -8 -8 39 c-4 21 -9 68 -10 104 -1 53 -8 80 -34 133 -18 36 -36 66 -41 66
-4 0 -7 8 -5 18 1 9 -9 39 -22 65 l-24 48 43 -6 c24 -3 61 -8 83 -11 145 -20
182 -9 217 61 24 48 16 104 -17 131 -16 13 -32 21 -36 18 -4 -2 -10 0 -13 5
-3 5 -20 12 -38 15 -18 3 -44 8 -58 11 -36 7 -136 16 -202 18 -31 1 -60 5 -64
9 -3 4 -2 20 4 35 10 25 22 130 24 208 1 17 -4 55 -11 86 -8 38 -9 69 -2 98 5
23 8 50 6 59 -2 9 -4 23 -4 30 -2 26 -66 80 -104 87 -21 4 -50 18 -63 32 -20
20 -23 31 -19 63 5 45 -9 83 -46 122 -42 45 -79 52 -173 33 -34 -7 -37 -6 -29
9 16 28 3 74 -32 111 -25 28 -42 37 -79 41 -52 7 -84 -8 -124 -57 -26 -32 -42
-37 -42 -14 0 20 -57 83 -89 99 -35 17 -90 18 -126 2z m936 -2715 c-6 -21 -13
-24 -49 -24 -24 0 -48 5 -54 11 -8 8 -5 9 10 5 16 -4 31 4 54 28 26 27 34 31
39 19 3 -8 3 -26 0 -39z"/>
</g>
</svg>
